inDegrees=no
num_controls=7
num_derivatives=13
num_iterations=115
num_multipliers=7
num_parameters=0
num_slacks=7
num_states=26
objective=5.611992
objective_accelerations=0.605158
objective_balance=0.118923
objective_effort=0.423067
objective_height=4.403341
objective_ligament=0.061503
solver_duration=1328.407837
status=Solve_Succeeded
success=true
DataType=double
version=3
OpenSimVersion=4.4-2022-07-23-0e9fedc
endheader
time	/jointset/ground_pelvis/pelvis_tilt/value	/jointset/ground_pelvis/pelvis_tx/value	/jointset/ground_pelvis/pelvis_ty/value	/jointset/hip_l/hip_flexion_l/value	/jointset/hip_l/hip_adduction_l/value	/jointset/hip_l/hip_rotation_l/value	/jointset/back/lumbar_extension/value	/jointset/patellofemoral_l/patellar_flexion_l/value	/jointset/knee_l/knee_flexion_l/value	/jointset/knee_l/knee_adduction_l/value	/jointset/knee_l/knee_rotation_l/value	/jointset/ankle_l/ankle_angle_l/value	/jointset/subtalar_l/subtalar_angle_l/value	/jointset/ground_pelvis/pelvis_tilt/speed	/jointset/ground_pelvis/pelvis_tx/speed	/jointset/ground_pelvis/pelvis_ty/speed	/jointset/hip_l/hip_flexion_l/speed	/jointset/hip_l/hip_adduction_l/speed	/jointset/hip_l/hip_rotation_l/speed	/jointset/back/lumbar_extension/speed	/jointset/patellofemoral_l/patellar_flexion_l/speed	/jointset/knee_l/knee_flexion_l/speed	/jointset/knee_l/knee_adduction_l/speed	/jointset/knee_l/knee_rotation_l/speed	/jointset/ankle_l/ankle_angle_l/speed	/jointset/subtalar_l/subtalar_angle_l/speed	/forceset/tau_hip_flexion_l	/forceset/tau_hip_adduction_l	/forceset/tau_hip_rotation_l	/forceset/tau_knee_flexion_l	/forceset/tau_ankle_angle_l	/forceset/tau_subtalar_angle_l	/forceset/tau_lumbar_extension	lambda_cid13_p0	lambda_cid13_p1	lambda_cid13_p2	lambda_cid13_p3	lambda_cid13_p4	lambda_cid13_p5	lambda_cid14_p0	/jointset/ground_pelvis/pelvis_tilt/accel	/jointset/ground_pelvis/pelvis_tx/accel	/jointset/ground_pelvis/pelvis_ty/accel	/jointset/hip_l/hip_flexion_l/accel	/jointset/hip_l/hip_adduction_l/accel	/jointset/hip_l/hip_rotation_l/accel	/jointset/back/lumbar_extension/accel	/jointset/patellofemoral_l/patellar_flexion_l/accel	/jointset/knee_l/knee_flexion_l/accel	/jointset/knee_l/knee_adduction_l/accel	/jointset/knee_l/knee_rotation_l/accel	/jointset/ankle_l/ankle_angle_l/accel	/jointset/subtalar_l/subtalar_angle_l/accel	gamma_cid13_p0	gamma_cid13_p1	gamma_cid13_p2	gamma_cid13_p3	gamma_cid13_p4	gamma_cid13_p5	gamma_cid14_p0
0	-0.160149535122373	0.05856798347993741	0.8979981670331538	0.3774920279260975	-0.2591455988268761	-0.2728214730736926	-0.0126506700172305	0.03223623128433515	0.03223623128433527	-0.1745325687671058	0.1743852048069137	-0.04231376238535053	-0.009271757061237233	0	0	0	0	0	0	0	0	0	0	0	0	0	0.1670808125071048	-0.08442979388804754	-0.05734779970200471	-0.3441602020163386	0.3757019292797406	-0.06217723093885922	-0.104095447740203	77.86327103394927	7.218194281104204	5.473961294532592	-24.33902554208301	-592.1163291195503	-66.42658582718366	-39.06995982617778	-3.83613523567002	-1.747670161973733	-1.01503489194716	11.42644020863332	-1.227956677434865	2.845377033223229	-6.06163916558331	8.973581356826399	8.973581356812748	0.08348420263329286	0.2757862854212387	1.472401219793651	-0.9121028271712939	1.514380646473822e-08	-1.971521139237113e-07	7.299855594634111e-08	-2.759064822570054e-08	-3.752821620066661e-08	-9.662915769160783e-08	-2.189713917249341e-08
0.01	-0.160337322050537	0.05848114451125893	0.8979482179639169	0.3780535105312655	-0.2592065505788162	-0.2726758653589275	-0.01294979879105858	0.03267576079041894	0.03267576079041901	-0.1745293293728486	0.1743927472224846	-0.04224310736713406	-0.009317645417035565	-0.03761706737913777	-0.01734750795688481	-0.009988832174295888	0.1122178457230402	-0.01211434911566181	0.02935888534612329	-0.05896700178385841	0.08762534911382647	0.08762534911379607	0.0007422850998516031	0.001182170655314412	0.01405310368259667	-0.009125503369351355	0.1566653758895352	-0.09348582130272948	-0.05484173222530279	-0.3289306923085947	0.3513661806111487	-0.04403499673516804	-0.09611207481305398	70.70499948020779	0.8591085182042886	6.183106680733069	-20.0011687141907	-592.9591348575183	-78.07420771202376	-39.08275921267055	-3.733442813238094	-1.725253763839587	-0.9906676348459749	11.10765709391821	-1.191754147622949	3.016725473485908	-5.685417737532578	8.614933252648296	8.614933252652085	0.08373892445755564	-0.009537832654689007	1.360081772277845	-0.9049270798731848	-4.097740320856943e-08	3.472740945127734e-08	9.39691737527557e-08	1.833526234144418e-08	-1.10276003233055e-07	-1.429124259022563e-08	-1.703460309793376e-08
0.02	-0.1609030697173326	0.05822143793275288	0.8977984085220018	0.3797348116616195	-0.2593863618457112	-0.2722295525530652	-0.01381283499327437	0.03398312810043834	0.03398312810043837	-0.17451583947545	0.1744023172869603	-0.04203425794613457	-0.009453219404138583	-0.07559214772636359	-0.03457352196551495	-0.01997207453559964	0.2239637050372341	-0.0237719029909566	0.06014101821940773	-0.1127814856775452	0.1735675607871541	0.1735675607871541	0.002050100629886066	0.0004055297809795507	0.02763888055660022	-0.01793712626094779	0.1462499392719643	-0.1025418487174115	-0.05233566474859998	-0.3137011826008514	0.3270304319425613	-0.0258927625314779	-0.08812870188590581	63.62357020258613	-5.513671202099498	6.894714034699997	-15.80625580306104	-592.6374228268202	-89.61562234464203	-39.12030759871533	-3.907737829286601	-1.723371372322791	-1.013916929348732	11.33204292686404	-1.136597629360305	3.13002653865546	-5.031135587549854	8.636953868726627	8.636953868725131	0.1965902885023001	-0.115976020508618	1.378935858075032	-0.8493267316203038	-9.709861288187707e-08	2.666069328262659e-07	1.149397915591703e-07	6.426117290858891e-08	-1.830237902654434e-07	6.804667251115657e-08	-1.217206702337411e-08
0.03	-0.161846479110822	0.05779087373136374	0.8975490837326644	0.3825252075869209	-0.2596807053635471	-0.2714734146468278	-0.01519477204693258	0.03614089398200263	0.03614089398200261	-0.1744880192533758	0.1743990859435472	-0.04169125691687855	-0.009675388365688537	-0.1127359082690295	-0.05143771517498445	-0.02985885832210266	0.3333950185146433	-0.03505543131253906	0.09080139905703082	-0.1634234571834127	0.2576308295542619	0.2576308295542588	0.00342810101882218	-0.0008945460231955332	0.040941091810378	-0.02646052241111813	0.1400035776598586	-0.09582691895326252	-0.05137013522121481	-0.3073666585013306	0.3204885165183944	-0.02861650337092148	-0.08314790044058487	61.45099592509177	-4.09436747783923	6.832940781831941	-15.02612610843588	-592.4536914215856	-85.71536580706032	-39.18106170993969	-3.564632227576153	-1.652689786850226	-0.970992250522137	10.64059176610674	-1.118066031083048	2.991260687610922	-5.053357751512086	8.237797899751682	8.237797899752152	0.0955819006318934	-0.1134399354145135	1.302821871972359	-0.8484787989867638	-1.011342659025524e-07	2.084191044255248e-07	1.379373266637456e-07	6.643612456747825e-08	-2.790643062503022e-07	4.763927979586353e-08	-1.931358654883024e-08
